<svg xmlns="http://www.w3.org/2000/svg" viewBox="0 0 60 30" role="img" aria-label="English">
  <rect width="60" height="30" fill="#012169"/>

  <!-- White diagonals -->
  <path d="M0,0 L7,0 L60,23 L60,30 L53,30 L0,7 Z" fill="#FFFFFF"/>
  <path d="M60,0 L53,0 L0,23 L0,30 L7,30 L60,7 Z" fill="#FFFFFF"/>

  <!-- Red diagonals -->
  <path d="M0,0 L3.5,0 L60,25.5 L60,30 L56.5,30 L0,4.5 Z" fill="#C8102E"/>
  <path d="M60,0 L56.5,0 L0,25.5 L0,30 L3.5,30 L60,4.5 Z" fill="#C8102E"/>

  <!-- White cross -->
  <rect x="0" y="12" width="60" height="6" fill="#FFFFFF"/>
  <rect x="27" y="0" width="6" height="30" fill="#FFFFFF"/>

  <!-- Red cross -->
  <rect x="0" y="13.5" width="60" height="3" fill="#C8102E"/>
  <rect x="28.5" y="0" width="3" height="30" fill="#C8102E"/>
</svg>
